<mxGraphModel><root><mxCell id="0"/><mxCell id="1" parent="0"/><mxCell id="2" value="User" style="rounded=1;absoluteArcSize=1;arcSize=14;whiteSpace=wrap;strokeWidth=2;" vertex="1" parent="1"><mxGeometry x="24" width="47" height="34" as="geometry"/></mxCell><mxCell id="3" value="Browser" style="rounded=1;absoluteArcSize=1;arcSize=14;whiteSpace=wrap;strokeWidth=2;" vertex="1" parent="1"><mxGeometry x="12" y="84" width="72" height="34" as="geometry"/></mxCell><mxCell id="4" value="Container" style="whiteSpace=wrap;strokeWidth=2;" vertex="1" parent="1"><mxGeometry x="5" y="167" width="85" height="34" as="geometry"/></mxCell><mxCell id="5" value="Flask" style="rounded=1;absoluteArcSize=1;arcSize=14;whiteSpace=wrap;strokeWidth=2;" vertex="1" parent="1"><mxGeometry x="22" y="251" width="51" height="34" as="geometry"/></mxCell><mxCell id="6" value="Python App" style="rounded=1;absoluteArcSize=1;arcSize=14;whiteSpace=wrap;strokeWidth=2;" vertex="1" parent="1"><mxGeometry y="334" width="95" height="34" as="geometry"/></mxCell><mxCell id="7" value="Storage" style="rounded=1;absoluteArcSize=1;arcSize=14;whiteSpace=wrap;strokeWidth=2;" vertex="1" parent="1"><mxGeometry x="13" y="418" width="69" height="34" as="geometry"/></mxCell><mxCell id="8" value="" style="curved=1;startArrow=none;endArrow=block;exitX=0.5;exitY=0.99;entryX=0.5;entryY=-0.01;" edge="1" parent="1" source="2" target="3"><mxGeometry relative="1" as="geometry"><Array as="points"/></mxGeometry></mxCell><mxCell id="9" value="" style="curved=1;startArrow=none;endArrow=block;exitX=0.5;exitY=0.97;entryX=0.5;entryY=0;" edge="1" parent="1" source="3" target="4"><mxGeometry relative="1" as="geometry"><Array as="points"/></mxGeometry></mxCell><mxCell id="10" value="" style="curved=1;startArrow=none;endArrow=block;exitX=0.5;exitY=0.99;entryX=0.5;entryY=-0.01;" edge="1" parent="1" source="4" target="5"><mxGeometry relative="1" as="geometry"><Array as="points"/></mxGeometry></mxCell><mxCell id="11" value="" style="curved=1;startArrow=none;endArrow=block;exitX=0.5;exitY=0.97;entryX=0.5;entryY=0;" edge="1" parent="1" source="5" target="6"><mxGeometry relative="1" as="geometry"><Array as="points"/></mxGeometry></mxCell><mxCell id="12" value="" style="curved=1;startArrow=none;endArrow=block;exitX=0.5;exitY=0.99;entryX=0.5;entryY=-0.01;" edge="1" parent="1" source="6" target="7"><mxGeometry relative="1" as="geometry"><Array as="points"/></mxGeometry></mxCell></root></mxGraphModel>